# xmcd
# 
# Track frame offsets:
#     182
#     13932
#     30007
#     43082
#     61032
#     74007
#     89432
#     104682
#     114282
#     126907
#     143207
#     157282
#     170257
#     182057
#     194982
#     208907
# 
# Disc length: 2941
# 
# Revision: 3
# Processed by: cddbd v1.5.2PL0 Copyright (c) Steve Scherf et al.
# Submitted via: fre:ac v1.0.31
# 
DISCID=f10b7b10
DTITLE=Various Artist - Trucker`s Gold - Asphaltträume  CD 2
DYEAR=2000
DGENRE=Country
TTITLE0=Jonny Hill - Stell Dir einmal vor
TTITLE1=Linda Feller - Könnt ich noch einmal leben
TTITLE2=Tom Astor - Endlos weit - nur Freiheit ( Shenandoah )
TTITLE3=Larry Schuba and Western Union - Der Song vom Glück
TTITLE4=Nashville Music Company - Vergib mir das ich Dich liebe
TTITLE5=Tom Astor - Wo sind die Frau´n
TTITLE6=Gunter Gabriel - Willkommen im deutscen Wunderland
TTITLE7=Rugy and Flake - Rodeo
TTITLE8=Tom Astor - Eisen im Feuer
TTITLE9=Rheinstone Cowboys - och ene Cowboy muß ens Dusche
TTITLE10=Nashville Music Company - Rot ist unsere Liebe
TTITLE11=Tom Astor - Wie Regen Fluß und Meer
TTITLE12=Rugy and Flake - Frei sein
TTITLE13=D´r Drüjje Pitter - Bitte ein Rämsteiner Bier
TTITLE14=Tom Astor - Du hast mich fest in der Hand
TTITLE15=Marc Sunny - Hey! Hey! Doch sonst ist alles OK
EXTD=
EXTT0=
EXTT1=
EXTT2=
EXTT3=
EXTT4=
EXTT5=
EXTT6=
EXTT7=
EXTT8=
EXTT9=
EXTT10=
EXTT11=
EXTT12=
EXTT13=
EXTT14=
EXTT15=
PLAYORDER=
